<svg width="16" height="17" viewBox="0 0 16 17" fill="none" xmlns="http://www.w3.org/2000/svg">
<path d="M8.90039 3.90039H5.90039C5.63517 3.90039 5.38082 4.00575 5.19328 4.19328C5.00575 4.38082 4.90039 4.63517 4.90039 4.90039V15.9004C4.90039 16.1656 5.00575 16.42 5.19328 16.6075C5.38082 16.795 5.63517 16.9004 5.90039 16.9004H14.9004C15.1656 16.9004 15.42 16.795 15.6075 16.6075C15.795 16.42 15.9004 16.1656 15.9004 15.9004V4.90039C15.9004 4.63517 15.795 4.38082 15.6075 4.19328C15.42 4.00575 15.1656 3.90039 14.9004 3.90039H11.9004" fill="#D4F7DC"/>
<path d="M6.23438 3.09961H3.23438C2.96916 3.09961 2.7148 3.20497 2.52727 3.3925C2.33973 3.58004 2.23438 3.83439 2.23438 4.09961V15.0996C2.23438 15.3648 2.33973 15.6192 2.52727 15.8067C2.7148 15.9943 2.96916 16.0996 3.23438 16.0996H12.2344C12.4996 16.0996 12.7539 15.9943 12.9415 15.8067C13.129 15.6192 13.2344 15.3648 13.2344 15.0996V4.09961C13.2344 3.83439 13.129 3.58004 12.9415 3.3925C12.7539 3.20497 12.4996 3.09961 12.2344 3.09961H9.23438" stroke="#15692A" stroke-linecap="round" stroke-linejoin="round"/>
<path d="M9.23437 2.59961C9.23437 2.20178 9.07634 1.82025 8.79503 1.53895C8.51373 1.25764 8.1322 1.09961 7.73437 1.09961C7.33655 1.09961 6.95502 1.25764 6.67371 1.53895C6.39241 1.82025 6.23438 2.20178 6.23438 2.59961V4.59961C6.23438 4.73222 6.28705 4.85939 6.38082 4.95316C6.47459 5.04693 6.60177 5.09961 6.73437 5.09961H8.73437C8.86698 5.09961 8.99416 5.04693 9.08793 4.95316C9.1817 4.85939 9.23437 4.73222 9.23437 4.59961V2.59961Z" stroke="#15692A" stroke-linecap="round" stroke-linejoin="round"/>
<path d="M7.73437 11.5996C8.97702 11.5996 9.98437 10.5923 9.98437 9.34961C9.98437 8.10697 8.97702 7.09961 7.73437 7.09961C6.49173 7.09961 5.48438 8.10697 5.48438 9.34961C5.48438 10.5923 6.49173 11.5996 7.73437 11.5996Z" stroke="#15692A" stroke-linecap="round" stroke-linejoin="round"/>
<path d="M11.7344 16.0997C11.6041 15.1312 11.1269 14.2428 10.3913 13.5995C9.65568 12.9561 8.71162 12.6016 7.73437 12.6016C6.75713 12.6016 5.81307 12.9561 5.07745 13.5995C4.34183 14.2428 3.86461 15.1312 3.73438 16.0997" stroke="#15692A" stroke-linecap="round" stroke-linejoin="round"/>
<path d="M12.4002 16.5992C14.1675 16.5992 15.6002 15.1665 15.6002 13.3992C15.6002 11.6319 14.1675 10.1992 12.4002 10.1992C10.6329 10.1992 9.2002 11.6319 9.2002 13.3992C9.2002 15.1665 10.6329 16.5992 12.4002 16.5992Z" fill="#D4F7DC"/>
<path d="M12.4 15.8C13.7255 15.8 14.8 14.7255 14.8 13.4C14.8 12.0745 13.7255 11 12.4 11C11.0745 11 10 12.0745 10 13.4C10 14.7255 11.0745 15.8 12.4 15.8Z" fill="#D4F7DC" stroke="#15692A" stroke-linecap="round" stroke-linejoin="round"/>
<path d="M13.4699 12.7031L12.3079 14.2523C12.282 14.2867 12.2492 14.315 12.2115 14.3356C12.1738 14.3561 12.1321 14.3684 12.0892 14.3714C12.0464 14.3745 12.0034 14.3683 11.9631 14.3534C11.9229 14.3384 11.8863 14.315 11.8559 14.2847L11.2559 13.6847" stroke="#15692A" stroke-linecap="round" stroke-linejoin="round"/>
</svg>
