<svg width="106" height="32" viewBox="0 0 106 32" fill="none" xmlns="http://www.w3.org/2000/svg">
<path d="M5.27565 27.1664H1.18312V9.47717H5.27565V27.1664ZM5.71534 4.30232C5.71534 5.06896 5.46731 5.67777 4.97125 6.12874C4.47518 6.5797 3.88893 6.80519 3.21247 6.80519C2.51347 6.80519 1.91594 6.5797 1.41988 6.12874C0.923813 5.67777 0.675781 5.06896 0.675781 4.30232C0.675781 3.51312 0.923813 2.89305 1.41988 2.44208C1.91594 1.99111 2.51347 1.76562 3.21247 1.76562C3.88893 1.76562 4.47518 1.99111 4.97125 2.44208C5.46731 2.89305 5.71534 3.51312 5.71534 4.30232Z" fill="#1E0A3C"/>
<path d="M10.4967 10.0522C11.2859 9.82667 12.3119 9.61246 13.5746 9.40953C14.8373 9.20659 16.2353 9.10512 17.7686 9.10512C19.2117 9.10512 20.418 9.30806 21.3876 9.71393C22.3572 10.0973 23.1238 10.6497 23.6876 11.3712C24.2738 12.0702 24.6797 12.9271 24.9052 13.9418C25.1532 14.9339 25.2772 16.0275 25.2772 17.2225V27.1664H21.1847V17.8652C21.1847 16.9181 21.117 16.1177 20.9817 15.4638C20.869 14.7873 20.6661 14.2462 20.3729 13.8403C20.1024 13.4119 19.719 13.1075 19.223 12.9271C18.7495 12.7241 18.1632 12.6227 17.4642 12.6227C16.9456 12.6227 16.4044 12.6565 15.8407 12.7241C15.277 12.7918 14.8599 12.8482 14.5893 12.8933V27.1664H10.4967V10.0522Z" fill="#1E0A3C"/>
<path d="M29.3008 18.3387C29.3008 17.0309 29.5037 15.8133 29.9096 14.6858C30.3155 13.5359 30.8904 12.5438 31.6345 11.7095C32.4012 10.8752 33.3257 10.2213 34.408 9.74775C35.4903 9.27424 36.7079 9.03748 38.0608 9.03748C39.7294 9.03748 41.3078 9.34188 42.796 9.95069L41.9166 13.2991C41.4431 13.0962 40.9019 12.9271 40.2931 12.7918C39.7069 12.6565 39.0755 12.5888 38.3991 12.5888C36.7981 12.5888 35.5805 13.0962 34.7462 14.1109C33.9119 15.103 33.4948 16.5123 33.4948 18.3387C33.4948 20.0975 33.8894 21.4955 34.6786 22.5327C35.4678 23.5474 36.7981 24.0547 38.6696 24.0547C39.3686 24.0547 40.0564 23.9871 40.7328 23.8518C41.4093 23.7165 41.9955 23.5474 42.4916 23.3444L43.0666 26.7267C42.6156 26.9522 41.9279 27.1551 41.0034 27.3355C40.1015 27.5159 39.1657 27.6061 38.1961 27.6061C36.6854 27.6061 35.3663 27.3806 34.2389 26.9296C33.134 26.4561 32.2095 25.8135 31.4654 25.0017C30.7439 24.1674 30.2027 23.1866 29.8419 22.0592C29.4812 20.9092 29.3008 19.669 29.3008 18.3387Z" fill="#1E0A3C"/>
<path d="M86.8116 13.1656C86.4733 13.0529 85.9998 12.9402 85.391 12.8274C84.8047 12.6921 84.117 12.6245 83.3278 12.6245C82.8769 12.6245 82.3921 12.6696 81.8735 12.7598C81.3774 12.85 81.0279 12.9289 80.825 12.9965V27.1682H76.7324V10.3246C77.5216 10.0314 78.5025 9.76084 79.675 9.51281C80.87 9.24223 82.1891 9.10694 83.6322 9.10694C83.9028 9.10694 84.2185 9.12949 84.5793 9.17458C84.94 9.19713 85.3008 9.24223 85.6616 9.30987C86.0224 9.35497 86.3719 9.42262 86.7101 9.51281C87.0483 9.58045 87.3189 9.6481 87.5218 9.71574L86.8116 13.1656Z" fill="#1E0A3C"/>
<path d="M93.5869 18.2729C93.5869 20.0767 94.0153 21.4973 94.8722 22.5345C95.729 23.5492 96.9128 24.0565 98.4235 24.0565C99.0774 24.0565 99.6299 24.034 100.081 23.9889C100.554 23.9212 100.938 23.8536 101.231 23.7859V13.6392C100.87 13.3911 100.385 13.1656 99.7764 12.9627C99.1902 12.7372 98.5588 12.6245 97.8824 12.6245C96.3942 12.6245 95.3006 13.1318 94.6016 14.1465C93.9251 15.1612 93.5869 16.5366 93.5869 18.2729ZM105.323 26.627C104.512 26.8751 103.486 27.1005 102.245 27.3035C101.028 27.5064 99.7426 27.6079 98.3897 27.6079C96.9917 27.6079 95.7403 27.3937 94.6354 26.9653C93.5305 26.5368 92.5835 25.928 91.7943 25.1388C91.0277 24.3271 90.4301 23.3575 90.0017 22.2301C89.5958 21.0801 89.3929 19.7949 89.3929 18.3743C89.3929 16.9763 89.562 15.7136 89.9002 14.5862C90.261 13.4362 90.7796 12.4554 91.4561 11.6436C92.1325 10.8319 92.9555 10.2118 93.9251 9.78339C94.8947 9.33242 96.0108 9.10694 97.2736 9.10694C98.1304 9.10694 98.8858 9.2084 99.5397 9.41134C100.194 9.61428 100.757 9.83976 101.231 10.0878V1.59833L105.323 0.921875V26.627Z" fill="#1E0A3C"/>
<g clip-path="url(#clip0_1061_119254)">
<path d="M57.0513 25.6399L59.8378 20.8137H50.8228C52.1881 23.175 54.424 24.9075 57.0513 25.6399ZM49.7587 18.212H55.3316L50.8228 10.4055C49.9078 11.9873 49.4276 13.7829 49.4308 15.6102C49.4308 16.5078 49.5453 17.3794 49.7587 18.212ZM52.5464 8.18489L55.3303 13.0085L59.8378 5.2033C57.1098 5.19974 54.4903 6.27093 52.5464 8.18489ZM62.6242 5.58055L59.8378 10.4068H68.8528C67.4875 8.04553 65.2516 6.31302 62.6242 5.58055ZM69.9169 13.0085H64.344L68.8515 20.815C69.7669 19.2334 70.2475 17.4377 70.2447 15.6102C70.2447 14.7126 70.1303 13.8411 69.9169 13.0085ZM67.1291 23.0356L64.3453 18.212L59.8378 26.0172C62.5657 26.0207 65.1853 24.9496 67.1291 23.0356ZM59.8378 28.6189C52.6531 28.6189 46.8291 22.7949 46.8291 15.6102C46.8291 8.42555 52.6531 2.60156 59.8378 2.60156C67.0225 2.60156 72.8465 8.42555 72.8465 15.6102C72.8465 22.7949 67.0225 28.6189 59.8378 28.6189ZM61.3403 13.0085H58.3353L56.8341 15.6102L58.3353 18.212H61.3403L62.8415 15.6102L61.3403 13.0085Z" fill="#FFB321"/>
</g>
<defs>
<clipPath id="clip0_1061_119254">
<rect width="31.2208" height="31.2208" fill="white" transform="translate(44.2266)"/>
</clipPath>
</defs>
</svg>
