<svg width="16" height="16" viewBox="0 0 16 16" fill="none" xmlns="http://www.w3.org/2000/svg">
<path d="M8.5 2.5H5.5C5.23478 2.5 4.98043 2.60536 4.79289 2.79289C4.60536 2.98043 4.5 3.23478 4.5 3.5V14.5C4.5 14.7652 4.60536 15.0196 4.79289 15.2071C4.98043 15.3946 5.23478 15.5 5.5 15.5H14.5C14.7652 15.5 15.0196 15.3946 15.2071 15.2071C15.3946 15.0196 15.5 14.7652 15.5 14.5V3.5C15.5 3.23478 15.3946 2.98043 15.2071 2.79289C15.0196 2.60536 14.7652 2.5 14.5 2.5H11.5" fill="#B3CDFF"/>
<path d="M5.83398 2.5H2.83398C2.56877 2.5 2.31441 2.60536 2.12688 2.79289C1.93934 2.98043 1.83398 3.23478 1.83398 3.5V14.5C1.83398 14.7652 1.93934 15.0196 2.12688 15.2071C2.31441 15.3946 2.56877 15.5 2.83398 15.5H11.834C12.0992 15.5 12.3536 15.3946 12.5411 15.2071C12.7286 15.0196 12.834 14.7652 12.834 14.5V3.5C12.834 3.23478 12.7286 2.98043 12.5411 2.79289C12.3536 2.60536 12.0992 2.5 11.834 2.5H8.83398" stroke="#0050C8" stroke-linecap="round" stroke-linejoin="round"/>
<path d="M8.83398 2C8.83398 1.60218 8.67595 1.22064 8.39464 0.93934C8.11334 0.658035 7.73181 0.5 7.33398 0.5C6.93616 0.5 6.55463 0.658035 6.27332 0.93934C5.99202 1.22064 5.83398 1.60218 5.83398 2V4C5.83398 4.13261 5.88666 4.25979 5.98043 4.35355C6.0742 4.44732 6.20138 4.5 6.33398 4.5H8.33398C8.46659 4.5 8.59377 4.44732 8.68754 4.35355C8.78131 4.25979 8.83398 4.13261 8.83398 4V2Z" stroke="#0050C8" stroke-linecap="round" stroke-linejoin="round"/>
<path d="M7.33398 11C8.57663 11 9.58398 9.99264 9.58398 8.75C9.58398 7.50736 8.57663 6.5 7.33398 6.5C6.09134 6.5 5.08398 7.50736 5.08398 8.75C5.08398 9.99264 6.09134 11 7.33398 11Z" stroke="#0050C8" stroke-linecap="round" stroke-linejoin="round"/>
<path d="M11.334 15.5001C11.2038 14.5316 10.7265 13.6432 9.99091 12.9999C9.25529 12.3565 8.31123 12.002 7.33398 12.002C6.35674 12.002 5.41268 12.3565 4.67706 12.9999C3.94144 13.6432 3.46422 14.5316 3.33398 15.5001" stroke="#0050C8" stroke-linecap="round" stroke-linejoin="round"/>
</svg>
