<svg width="16" height="16" viewBox="0 0 16 16" fill="none" xmlns="http://www.w3.org/2000/svg">
<rect x="4.44434" y="0.445312" width="7.11111" height="6.22222" rx="0.5" fill="#F0DAFB"/>
<g clip-path="url(#clip0_4535_2153)">
<path d="M11.1111 10.668H4.88889L4 15.1124H12L11.1111 10.668Z" stroke="#592474" stroke-linecap="round" stroke-linejoin="round"/>
<path d="M11.4663 12.4444H13.7775C14.0132 12.4444 14.2393 12.3508 14.406 12.1841C14.5727 12.0174 14.6663 11.7913 14.6663 11.5556V8H1.33301V11.5556C1.33301 11.7913 1.42666 12.0174 1.59336 12.1841C1.76006 12.3508 1.98615 12.4444 2.2219 12.4444H4.53301" stroke="#592474" stroke-linecap="round" stroke-linejoin="round"/>
<path d="M3.66012 4.44336C3.49502 4.44331 3.33316 4.48995 3.1927 4.57672C3.05224 4.66349 2.93872 4.78766 2.86486 4.93533L1.33301 7.99962H14.6663L13.1345 4.93533C13.0606 4.78766 12.9471 4.66349 12.8066 4.57672C12.6662 4.48995 12.5043 4.44402 12.3392 4.44407H12.4441" stroke="#592474" stroke-linecap="round" stroke-linejoin="round"/>
<path d="M13.1109 9.7793C13.0669 9.7793 13.024 9.79233 12.9874 9.81675C12.9509 9.84117 12.9224 9.87587 12.9056 9.91648C12.8888 9.95708 12.8844 10.0018 12.8929 10.0449C12.9015 10.088 12.9227 10.1276 12.9538 10.1587C12.9848 10.1897 13.0244 10.2109 13.0675 10.2195C13.1106 10.228 13.1553 10.2236 13.1959 10.2068C13.2365 10.19 13.2712 10.1615 13.2957 10.125C13.3201 10.0884 13.3331 10.0455 13.3331 10.0015C13.3331 9.94258 13.3097 9.88606 13.268 9.84438C13.2264 9.80271 13.1698 9.7793 13.1109 9.7793Z" stroke="#592474" stroke-linecap="round" stroke-linejoin="round"/>
<path d="M6.66602 13.334H9.33268" stroke="#592474" stroke-linecap="round" stroke-linejoin="round"/>
</g>
<defs>
<clipPath id="clip0_4535_2153">
<rect width="14.2222" height="14.2222" fill="white" transform="translate(0.888672 1.33398)"/>
</clipPath>
</defs>
</svg>
