<svg width="48" height="48" viewBox="0 0 48 48" fill="none" xmlns="http://www.w3.org/2000/svg">
<path d="M48 24C48 37.2548 37.2548 48 24 48C10.7452 48 0 37.2548 0 24C0 10.7452 10.7452 0 24 0C37.2548 0 48 10.7452 48 24ZM2.4 24C2.4 35.9293 12.0707 45.6 24 45.6C35.9293 45.6 45.6 35.9293 45.6 24C45.6 12.0707 35.9293 2.4 24 2.4C12.0707 2.4 2.4 12.0707 2.4 24Z" fill="#E7E7ED"/>
<path d="M24 0C29.0683 6.04389e-08 34.0065 1.60452 38.1068 4.58359C42.2072 7.56267 45.2592 11.7634 46.8254 16.5836C48.3915 21.4038 48.3915 26.5962 46.8254 31.4164C45.2592 36.2367 42.2072 40.4373 38.1068 43.4164C34.0065 46.3955 29.0683 48 24 48C18.9317 48 13.9935 46.3955 9.89315 43.4164C5.79281 40.4373 2.74083 36.2366 1.17464 31.4164C-0.391548 26.5962 -0.391548 21.4038 1.17464 16.5836L3.45718 17.3252C2.04761 21.6634 2.04761 26.3365 3.45718 30.6748C4.86675 35.013 7.61353 38.7936 11.3038 41.4748C14.9941 44.1559 19.4385 45.6 24 45.6C28.5615 45.6 33.0059 44.1559 36.6962 41.4748C40.3865 38.7936 43.1332 35.013 44.5428 30.6748C45.9524 26.3365 45.9524 21.6635 44.5428 17.3252C43.1332 12.987 40.3865 9.2064 36.6962 6.52523C33.0059 3.84407 28.5615 2.4 24 2.4V0Z" fill="#287D3C"/>
<path d="M15.078 29.3185C16.9658 29.3185 18.3167 28.2788 18.3209 26.8597C18.3167 25.7688 17.5113 24.8569 16.4971 24.6864V24.6268C17.3792 24.4308 17.9928 23.6381 17.9971 22.6921C17.9928 21.3498 16.757 20.3526 15.078 20.3526C13.3863 20.3526 12.1505 21.3455 12.1547 22.6921C12.1505 23.6381 12.7556 24.4308 13.6547 24.6268V24.6864C12.6235 24.8569 11.8266 25.7688 11.8309 26.8597C11.8266 28.2788 13.1732 29.3185 15.078 29.3185ZM15.078 28.0998C14.0894 28.0998 13.4502 27.5543 13.4587 26.7489C13.4502 25.9137 14.1363 25.3214 15.078 25.3214C16.007 25.3214 16.6888 25.918 16.6974 26.7489C16.6888 27.5543 16.0539 28.0998 15.078 28.0998ZM15.078 24.1239C14.2684 24.1239 13.6888 23.5998 13.6974 22.8413C13.6888 22.0913 14.2513 21.5884 15.078 21.5884C15.892 21.5884 16.4502 22.0913 16.4587 22.8413C16.4502 23.604 15.8749 24.1239 15.078 24.1239ZM22.9477 29.3654C25.0528 29.3697 26.3099 27.7077 26.3099 24.8441C26.3099 21.9975 25.0443 20.3526 22.9477 20.3526C20.8511 20.3526 19.5898 21.9933 19.5855 24.8441C19.5855 27.7035 20.8426 29.3654 22.9477 29.3654ZM22.9477 28.0316C21.8611 28.0316 21.1792 26.9407 21.1835 24.8441C21.1878 22.7646 21.8653 21.6694 22.9477 21.6694C24.0344 21.6694 24.7119 22.7646 24.7162 24.8441C24.7162 26.9407 24.0386 28.0316 22.9477 28.0316ZM32.392 27.5629C32.3962 28.5771 33.0397 29.4421 34.2371 29.4421C35.4303 29.4421 36.0866 28.5771 36.0823 27.5629V27.1026C36.0866 26.0799 35.4474 25.2234 34.2371 25.2234C33.0567 25.2234 32.3962 26.0884 32.392 27.1026V27.5629ZM27.9559 22.5685C27.9601 23.5827 28.6036 24.4393 29.8053 24.4393C30.9942 24.4393 31.6505 23.5913 31.6462 22.5685V22.1083C31.6505 21.0856 31.0113 20.229 29.8053 20.229C28.6292 20.229 27.9601 21.0856 27.9559 22.1083V22.5685ZM28.3394 29.1992H29.409L35.409 20.4719H34.3394L28.3394 29.1992ZM33.5042 27.1026C33.5084 26.6509 33.7002 26.195 34.2371 26.195C34.7996 26.195 34.9658 26.6509 34.9616 27.1026V27.5629C34.9658 28.0146 34.7826 28.462 34.2371 28.462C33.6917 28.462 33.5084 28.0103 33.5042 27.5629V27.1026ZM29.0766 22.1083C29.0809 21.6609 29.2641 21.2006 29.8053 21.2006C30.3678 21.2006 30.5297 21.6566 30.5255 22.1083V22.5685C30.5297 23.0202 30.3508 23.4677 29.8053 23.4677C29.2599 23.4677 29.0809 23.0202 29.0766 22.5685V22.1083Z" fill="#287D3C"/>
</svg>
