<svg width="16" height="17" viewBox="0 0 16 17" fill="none" xmlns="http://www.w3.org/2000/svg">
<g clip-path="url(#clip0_4535_19497)">
<path d="M13.5023 9.50065H14.9997C15.1765 9.50065 15.3461 9.43041 15.4711 9.30539C15.5961 9.18036 15.6663 9.0108 15.6663 8.83398V8.16732C15.6663 7.99051 15.5961 7.82094 15.4711 7.69591C15.3461 7.57089 15.1765 7.50065 14.9997 7.50065H13.5017C13.3658 6.82492 13.1416 6.16997 12.835 5.55265L13.8943 4.49398C14.0193 4.36897 14.0895 4.19943 14.0895 4.02265C14.0895 3.84588 14.0193 3.67634 13.8943 3.55132L12.949 2.60865C12.824 2.48367 12.6545 2.41346 12.4777 2.41346C12.3009 2.41346 12.1314 2.48367 12.0063 2.60865L10.9463 3.66798C10.3295 3.36127 9.67502 3.13712 8.99967 3.00132V1.50065C8.99967 1.32384 8.92944 1.15427 8.80441 1.02925C8.67939 0.904222 8.50982 0.833984 8.33301 0.833984H7.66634C7.48953 0.833984 7.31996 0.904222 7.19494 1.02925C7.06991 1.15427 6.99967 1.32384 6.99967 1.50065V2.99998C6.32412 3.13579 5.66939 3.35994 5.05234 3.66665L3.99234 2.60865C3.86732 2.48367 3.69778 2.41346 3.52101 2.41346C3.34423 2.41346 3.17469 2.48367 3.04967 2.60865L2.10634 3.55198C1.98136 3.677 1.91115 3.84654 1.91115 4.02332C1.91115 4.20009 1.98136 4.36963 2.10634 4.49465L3.16634 5.55398C2.85994 6.17116 2.63581 6.82585 2.49967 7.50132H0.999674C0.822863 7.50132 0.653294 7.57156 0.52827 7.69658C0.403246 7.8216 0.333008 7.99117 0.333008 8.16798V8.83465C0.333008 9.01146 0.403246 9.18103 0.52827 9.30606C0.653294 9.43108 0.822863 9.50132 0.999674 9.50132H2.49701C2.63314 10.1768 2.85728 10.8315 3.16367 11.4487L2.10367 12.5087C1.97869 12.6337 1.90848 12.8032 1.90848 12.98C1.90848 13.1568 1.97869 13.3263 2.10367 13.4513L3.04967 14.394C3.17469 14.519 3.34423 14.5892 3.52101 14.5892C3.69778 14.5892 3.86732 14.519 3.99234 14.394L5.05167 13.334C5.669 13.6406 6.32394 13.8647 6.99967 14.0007V15.5007C6.99967 15.6775 7.06991 15.847 7.19494 15.9721C7.31996 16.0971 7.48953 16.1673 7.66634 16.1673H8.33301C8.50982 16.1673 8.67939 16.0971 8.80441 15.9721C8.92944 15.847 8.99967 15.6775 8.99967 15.5007V14.004C9.67495 13.868 10.3294 13.6438 10.9463 13.3373L12.007 14.3967C12.132 14.5216 12.3016 14.5918 12.4783 14.5918C12.6551 14.5918 12.8247 14.5216 12.9497 14.3967L13.8923 13.454C14.0173 13.329 14.0875 13.1594 14.0875 12.9827C14.0875 12.8059 14.0173 12.6363 13.8923 12.5113L12.833 11.4513C13.1406 10.8332 13.3656 10.1774 13.5023 9.50065V9.50065Z" stroke="#6B6C7E" stroke-linecap="round" stroke-linejoin="round"/>
<path d="M8 11.5C9.65685 11.5 11 10.1569 11 8.5C11 6.84315 9.65685 5.5 8 5.5C6.34315 5.5 5 6.84315 5 8.5C5 10.1569 6.34315 11.5 8 11.5Z" stroke="#6B6C7E" stroke-linecap="round" stroke-linejoin="round"/>
</g>
<defs>
<clipPath id="clip0_4535_19497">
<rect width="16" height="16" fill="white" transform="translate(0 0.5)"/>
</clipPath>
</defs>
</svg>
