<svg width="16" height="17" viewBox="0 0 16 17" fill="none" xmlns="http://www.w3.org/2000/svg">
<g clip-path="url(#clip0_1061_112498)">
<path d="M11 15.0078C12.933 15.0078 14.5 13.4408 14.5 11.5078C14.5 9.57482 12.933 8.00781 11 8.00781C9.067 8.00781 7.5 9.57482 7.5 11.5078C7.5 13.4408 9.067 15.0078 11 15.0078Z" stroke="#1E0A3C" stroke-linecap="round" stroke-linejoin="round"/>
<path d="M15.4999 16.0078L13.4746 13.9824" stroke="#1E0A3C" stroke-linecap="round" stroke-linejoin="round"/>
<path d="M3.5 7.50781H6.5" stroke="#1E0A3C" stroke-linecap="round" stroke-linejoin="round"/>
<path d="M3.5 10.0078H5" stroke="#1E0A3C" stroke-linecap="round" stroke-linejoin="round"/>
<path d="M3.5 12.5078H5" stroke="#1E0A3C" stroke-linecap="round" stroke-linejoin="round"/>
<path d="M6.5 16.0078H1.5C1.23478 16.0078 0.98043 15.9025 0.792893 15.7149C0.605357 15.5274 0.5 15.273 0.5 15.0078V4.50781C0.5 4.2426 0.605357 3.98824 0.792893 3.80071C0.98043 3.61317 1.23478 3.50781 1.5 3.50781H4C4 2.84477 4.26339 2.20889 4.73223 1.74005C5.20107 1.2712 5.83696 1.00781 6.5 1.00781C7.16304 1.00781 7.79893 1.2712 8.26777 1.74005C8.73661 2.20889 9 2.84477 9 3.50781H11.5C11.7652 3.50781 12.0196 3.61317 12.2071 3.80071C12.3946 3.98824 12.5 4.2426 12.5 4.50781V6.00781" stroke="#1E0A3C" stroke-linecap="round" stroke-linejoin="round"/>
<path d="M6.5 3.00781C6.54945 3.00781 6.59778 3.02247 6.63889 3.04995C6.68 3.07742 6.71205 3.11646 6.73097 3.16214C6.74989 3.20782 6.75484 3.25809 6.7452 3.30659C6.73555 3.35508 6.71174 3.39963 6.67678 3.43459C6.64181 3.46955 6.59727 3.49336 6.54877 3.50301C6.50028 3.51266 6.45001 3.5077 6.40433 3.48878C6.35865 3.46986 6.3196 3.43782 6.29213 3.39671C6.26466 3.35559 6.25 3.30726 6.25 3.25781C6.25 3.19151 6.27634 3.12792 6.32322 3.08104C6.37011 3.03415 6.4337 3.00781 6.5 3.00781" stroke="#1E0A3C" stroke-linecap="round" stroke-linejoin="round"/>
</g>
<defs>
<clipPath id="clip0_1061_112498">
<rect width="16" height="16" fill="white" transform="translate(0 0.5)"/>
</clipPath>
</defs>
</svg>
