<svg width="17" height="17" viewBox="0 0 17 17" fill="none" xmlns="http://www.w3.org/2000/svg">
<g clip-path="url(#clip0_4535_19463)">
<path d="M7.93555 8.85057C7.9359 9.02338 7.86764 9.18926 7.74576 9.31176C7.62388 9.43427 7.45836 9.50338 7.28555 9.50391H2.08555C1.99996 9.50373 1.91524 9.48669 1.83624 9.45375C1.75724 9.42082 1.68551 9.37263 1.62514 9.31196C1.56477 9.25128 1.51696 9.1793 1.48443 9.10013C1.4519 9.02097 1.43529 8.93616 1.43555 8.85057V1.65724C1.43537 1.57162 1.45207 1.4868 1.48467 1.40763C1.51727 1.32846 1.56515 1.25648 1.62557 1.19582C1.68599 1.13515 1.75777 1.08697 1.83681 1.05405C1.91585 1.02112 2.00059 1.00408 2.08622 1.00391L7.28622 1.01257C7.45891 1.01328 7.62426 1.08247 7.746 1.20495C7.86773 1.32744 7.9359 1.49322 7.93555 1.66591V8.85057Z" stroke="#0050C8" stroke-linecap="round" stroke-linejoin="round"/>
<path d="M16.4326 4.86259C16.4314 5.03381 16.3622 5.19753 16.2404 5.31778C16.1185 5.43804 15.9538 5.50499 15.7826 5.50392H10.5826C10.4978 5.50454 10.4137 5.48843 10.3351 5.45653C10.2566 5.42462 10.1851 5.37754 10.1247 5.31798C10.0643 5.25842 10.0163 5.18754 9.98333 5.1094C9.95037 5.03126 9.93314 4.94739 9.93262 4.86259V1.65392C9.93368 1.48289 10.0026 1.31926 10.1242 1.19901C10.2458 1.07875 10.4102 1.0117 10.5813 1.01259L15.7813 1.00392C15.9527 1.00268 16.1176 1.06953 16.2397 1.18979C16.3618 1.31004 16.4312 1.47386 16.4326 1.64526V4.86259Z" stroke="#0050C8" stroke-linecap="round" stroke-linejoin="round"/>
<path d="M7.93555 15.3606C7.93502 15.4456 7.91776 15.5297 7.88474 15.608C7.85173 15.6863 7.80361 15.7574 7.74312 15.8172C7.68264 15.8769 7.61098 15.9241 7.53224 15.9562C7.4535 15.9882 7.36922 16.0044 7.28421 16.0039L2.08421 15.9953C1.913 15.996 1.7485 15.9287 1.62687 15.8082C1.50524 15.6877 1.43643 15.5238 1.43555 15.3526V12.1466C1.43598 12.0617 1.45315 11.9777 1.48606 11.8995C1.51897 11.8212 1.56698 11.7502 1.62735 11.6905C1.68771 11.6308 1.75925 11.5836 1.83787 11.5516C1.9165 11.5196 2.00066 11.5034 2.08555 11.5039H7.28555C7.45694 11.503 7.62167 11.5702 7.74355 11.6907C7.86543 11.8112 7.93449 11.9752 7.93555 12.1466V15.3606Z" stroke="#0050C8" stroke-linecap="round" stroke-linejoin="round"/>
<path d="M10.5833 16.0039C10.4976 16.0037 10.4128 15.9867 10.3337 15.9537C10.2546 15.9207 10.1828 15.8725 10.1224 15.8118C10.062 15.751 10.0141 15.679 9.98155 15.5997C9.94898 15.5205 9.93236 15.4356 9.93262 15.3499V8.15791C9.93236 8.07228 9.94896 7.98745 9.98148 7.90824C10.014 7.82904 10.0618 7.75702 10.1222 7.69629C10.1825 7.63556 10.2543 7.58731 10.3333 7.5543C10.4123 7.52129 10.497 7.50417 10.5826 7.50391H15.7826C15.8682 7.50417 15.953 7.52129 16.032 7.5543C16.111 7.58731 16.1827 7.63556 16.2431 7.69629C16.3034 7.75702 16.3512 7.82904 16.3838 7.90824C16.4163 7.98745 16.4329 8.07228 16.4326 8.15791V15.3412C16.433 15.514 16.3648 15.6798 16.2431 15.8024C16.1214 15.925 15.956 15.9944 15.7833 15.9952L10.5833 16.0039Z" stroke="#0050C8" stroke-linecap="round" stroke-linejoin="round"/>
</g>
<defs>
<clipPath id="clip0_4535_19463">
<rect width="16" height="16" fill="white" transform="translate(0.935547 0.5)"/>
</clipPath>
</defs>
</svg>
